<svg xmlns="http://www.w3.org/2000/svg" viewBox="0 0 120 140" role="img" aria-label="SLAP mark">
  <defs>
    <linearGradient id="outerRed" x1="22" y1="12" x2="96" y2="126" gradientUnits="userSpaceOnUse">
      <stop offset="0" stop-color="#ff1b2d"/>
      <stop offset="0.55" stop-color="#ee0618"/>
      <stop offset="1" stop-color="#9b0610"/>
    </linearGradient>
    <linearGradient id="innerDark" x1="28" y1="24" x2="91" y2="111" gradientUnits="userSpaceOnUse">
      <stop offset="0" stop-color="#171c22"/>
      <stop offset="1" stop-color="#05070a"/>
    </linearGradient>
    <filter id="glow" x="-25%" y="-25%" width="150%" height="150%">
      <feDropShadow dx="0" dy="0" stdDeviation="4" flood-color="#ff1733" flood-opacity="0.42"/>
    </filter>
  </defs>
  <path d="M60 5 107 21c-1 46-9 86-47 114C22 107 14 67 13 21L60 5Z" fill="url(#outerRed)"/>
  <path d="M60 13 99 26c-1 40-8 75-39 99-31-24-38-59-39-99L60 13Z" fill="none" stroke="rgba(255,255,255,.22)" stroke-width="2"/>
  <path d="M60 31 88 43v53l-28 17-28-17V43l28-12Z" fill="url(#innerDark)"/>
  <path d="M60 43a17 17 0 0 1 8 32l11 33c-12 5-26 5-38 0l11-33a17 17 0 0 1 8-32Z" fill="url(#outerRed)" filter="url(#glow)"/>
</svg>
